<!DOCTYPE svg PUBLIC "-//W3C//DTD SVG 20010904//EN" "http://www.w3.org/TR/2001/REC-SVG-20010904/DTD/svg10.dtd">
<svg version="1.0" xmlns="http://www.w3.org/2000/svg" width="974px" height="188px" viewBox="0 0 9740 1880" preserveAspectRatio="xMidYMid meet">
<g id="layer101" fill="#606162" stroke="none">
<path d="M3516 1374 c-14 -13 -16 -55 -16 -307 0 -161 4 -298 9 -305 5 -9 27 -12 72 -10 l64 3 15 47 15 48 19 -28 c35 -52 82 -76 157 -80 83 -5 141 19 193 80 59 68 66 105 66 339 0 239 4 229 -94 229 -91 0 -86 13 -86 -199 0 -168 -2 -189 -20 -219 -42 -69 -130 -79 -186 -21 l-29 30 -3 192 c-2 164 -5 194 -19 205 -25 18 -138 16 -157 -4z"/>
<path d="M4252 1378 c-8 -8 -12 -67 -12 -200 l0 -188 -40 0 c-48 0 -60 -18 -60 -92 0 -64 11 -78 62 -78 l38 0 0 -52 c0 -29 9 -71 19 -93 36 -80 135 -139 222 -133 l44 3 3 62 c4 76 -9 103 -46 103 -39 0 -52 17 -52 66 l0 43 53 3 52 3 5 65 5 65 23 -47 c28 -57 97 -122 160 -151 37 -17 66 -22 137 -22 109 0 164 23 237 97 65 67 91 139 86 238 -9 158 -99 268 -250 306 -79 20 -149 12 -227 -27 -112 -56 -174 -159 -175 -291 -1 -61 -4 -77 -14 -73 -8 3 -31 5 -53 5 l-39 0 0 180 c0 217 -1 220 -103 220 -36 0 -68 -5 -75 -12z m678 -176 c41 -20 80 -89 80 -139 0 -75 -49 -147 -113 -164 -108 -29 -201 66 -182 188 7 46 52 108 89 123 35 14 89 11 126 -8z"/>
<path d="M5348 1376 c-51 -14 -109 -54 -135 -92 -16 -25 -15 -26 28 -70 24 -24 47 -44 51 -44 4 0 29 14 55 30 35 22 59 30 94 30 52 0 72 -16 67 -52 -2 -19 -18 -28 -90 -54 -48 -17 -103 -43 -122 -57 -45 -35 -70 -100 -64 -170 9 -109 84 -162 228 -162 93 0 121 10 185 67 l36 31 -28 29 c-15 17 -40 38 -55 49 -27 19 -27 19 -64 -6 -52 -36 -124 -33 -124 5 0 25 19 38 81 56 154 46 209 103 209 217 -1 149 -170 242 -352 193z"/>
<path d="M6128 1376 c-51 -14 -109 -54 -135 -92 -16 -25 -15 -26 28 -70 24 -24 47 -44 51 -44 4 0 29 14 55 30 35 22 59 30 94 30 52 0 72 -16 67 -52 -2 -19 -18 -28 -90 -54 -48 -17 -103 -43 -122 -57 -45 -35 -70 -100 -64 -170 9 -109 84 -162 228 -162 93 0 121 10 185 67 l36 31 -28 29 c-15 17 -40 38 -55 49 -27 19 -27 19 -64 -6 -52 -36 -124 -33 -124 5 0 25 19 38 81 56 154 46 209 103 209 217 -1 149 -170 242 -352 193z"/>
<path d="M6581 1377 c-7 -9 -12 -89 -13 -223 l-3 -209 -30 -3 c-39 -5 -45 -15 -45 -84 0 -63 16 -88 56 -88 23 0 24 -3 24 -64 0 -41 5 -67 14 -75 19 -16 124 -51 153 -51 23 0 23 2 23 95 l0 95 48 0 c70 0 73 5 70 91 l-3 74 -57 3 -58 3 0 214 c0 202 -1 215 -19 225 -29 15 -146 13 -160 -3z"/>
<path d="M7139 1380 c-109 -19 -221 -112 -255 -213 -21 -60 -23 -153 -6 -214 27 -93 123 -189 215 -214 61 -16 173 -7 224 19 106 55 173 158 173 267 0 34 -5 66 -12 73 -9 9 -72 12 -220 12 -199 0 -208 1 -208 19 0 27 43 76 80 91 47 20 132 8 181 -24 l41 -28 35 34 c61 58 62 67 14 109 -64 57 -170 85 -262 69z m171 -410 c0 -20 -33 -61 -59 -74 -26 -14 -57 -19 -98 -17 -29 1 -93 58 -93 82 0 18 9 19 125 19 79 0 125 -4 125 -10z"/>
<path d="M7558 1380 c-17 -10 -18 -36 -18 -308 0 -163 4 -303 9 -310 5 -9 27 -12 72 -10 l64 3 9 43 c5 23 12 42 15 42 4 0 15 -14 25 -31 28 -47 72 -69 139 -69 65 0 106 17 154 62 l32 31 47 -41 c51 -46 88 -57 170 -50 72 6 127 45 168 118 l31 55 3 225 c4 257 6 250 -82 250 -103 0 -96 15 -96 -207 0 -211 -6 -239 -55 -261 -42 -19 -74 -14 -106 17 l-29 29 0 194 c0 106 -4 199 -9 207 -10 16 -106 27 -146 17 l-25 -6 0 -178 c0 -195 -8 -241 -47 -272 -39 -30 -79 -26 -119 14 l-34 34 0 188 c0 104 -4 196 -10 204 -11 18 -137 26 -162 10z"/>
<path d="M8760 1376 c-138 -37 -234 -165 -234 -311 -1 -93 24 -162 81 -225 60 -67 129 -102 214 -108 76 -5 128 16 173 69 15 17 28 30 30 28 1 -2 9 -22 17 -44 l15 -40 64 0 65 0 3 305 c3 350 8 330 -90 330 -58 0 -59 0 -75 -37 -10 -21 -19 -40 -20 -42 -2 -3 -18 9 -36 27 -60 58 -119 72 -207 48z m184 -189 c96 -74 78 -217 -34 -275 -52 -27 -105 -24 -150 8 -90 64 -75 241 24 286 46 21 118 12 160 -19z"/>
<path d="M9378 1377 c-52 -15 -110 -55 -135 -93 -16 -25 -15 -26 28 -70 24 -24 47 -44 51 -44 4 0 29 14 55 30 76 49 170 37 161 -20 -2 -21 -16 -29 -89 -55 -105 -38 -143 -64 -170 -118 -28 -54 -24 -148 9 -194 45 -64 183 -100 279 -74 47 13 126 69 131 93 2 9 -19 33 -47 57 l-49 42 -38 -26 c-56 -38 -124 -33 -124 10 0 23 13 31 95 56 71 21 133 58 162 96 25 32 28 45 28 108 0 62 -4 77 -28 114 -52 79 -203 120 -319 88z"/>
<path d="M3257 1373 c-12 -11 -8 -582 3 -604 9 -16 22 -19 85 -19 109 0 105 -12 105 312 0 149 -4 278 -10 292 -9 25 -13 26 -93 26 -46 0 -87 -3 -90 -7z"/>
<path d="M5757 1373 c-12 -11 -8 -582 3 -604 9 -16 22 -19 85 -19 109 0 105 -12 105 312 0 149 -4 278 -10 292 -9 25 -13 26 -93 26 -46 0 -87 -3 -90 -7z"/>
<path d="M3262 658 c-12 -12 -17 -114 -6 -142 5 -13 23 -16 90 -16 75 0 84 2 95 21 14 26 7 112 -11 134 -16 19 -150 21 -168 3z"/>
<path d="M5762 658 c-12 -12 -17 -114 -6 -142 5 -13 23 -16 90 -16 75 0 84 2 95 21 14 26 7 112 -11 134 -16 19 -150 21 -168 3z"/>
</g>
<g id="layer102" fill="#eadd3c" stroke="none">
<path d="M2154 1796 c-185 -93 -293 -160 -372 -231 -54 -48 -65 -78 -34 -90 92 -37 307 -105 317 -101 7 2 21 31 30 63 31 110 132 270 224 357 33 32 39 57 17 75 -11 9 -50 -6 -182 -73z"/>
<path d="M884 1556 c-11 -28 3 -42 63 -66 185 -73 484 -247 676 -392 103 -78 265 -235 324 -313 161 -212 154 -384 -20 -496 -72 -47 -83 -61 -61 -83 12 -13 39 -16 129 -16 274 0 512 73 647 199 107 98 137 195 99 319 -77 256 -433 506 -976 687 -220 73 -589 152 -797 171 -67 6 -78 4 -84 -10z"/>
<path d="M610 1400 c-250 -44 -451 -148 -538 -280 -79 -117 -82 -236 -11 -379 158 -320 745 -613 1424 -710 172 -25 252 -28 268 -12 21 21 -5 41 -114 85 -273 110 -571 314 -778 532 -289 306 -339 556 -140 699 53 38 57 46 33 69 -18 19 -12 19 -144 -4z"/>
</g>


</svg>